<svg width="117" height="197" viewBox="0 0 117 197" fill="none" xmlns="http://www.w3.org/2000/svg">
<rect x="12.2697" y="5" width="94" height="192" rx="22" fill="#F07432"/>
<rect x="7.26965" y="148" width="5" height="20" rx="2.5" fill="black"/>
<rect x="106.27" y="151" width="5" height="20" rx="2.5" fill="black"/>
<rect x="106.27" y="43" width="5" height="20" rx="2.5" fill="black"/>
<rect x="7.26965" y="43" width="5" height="20" rx="2.5" fill="black"/>
<rect x="23.2697" y="75" width="72" height="97" rx="7" fill="#AE4208"/>
<rect x="16.7697" y="28.5" width="85" height="39" rx="10.5" fill="black" stroke="#AFAFAF"/>
<rect x="22.7697" y="165.5" width="73" height="22" rx="10.5" fill="black" stroke="#AFAFAF"/>
<rect x="90.7697" y="160.5" width="73" height="10" rx="5" transform="rotate(-90 90.7697 160.5)" fill="black" stroke="#AFAFAF"/>
<rect x="16.7697" y="160.5" width="73" height="10" rx="5" transform="rotate(-90 16.7697 160.5)" fill="black" stroke="#AFAFAF"/>
<rect x="30.2697" width="13" height="9" rx="4.5" fill="#FFEA04"/>
<rect y="51.0398" width="13" height="9" rx="4.5" transform="rotate(-24.051 0 51.0398)" fill="#F07432"/>
<rect x="104.937" y="46" width="13" height="9" rx="4.5" transform="rotate(24.05 104.937 46)" fill="#F07432"/>
<rect x="73.2697" width="13" height="9" rx="4.5" fill="#FFEA04"/>
</svg>
