<svg width="271" height="267" viewBox="0 0 271 267" fill="none" xmlns="http://www.w3.org/2000/svg">
<ellipse cx="135.5" cy="133.5" rx="135.5" ry="133.5" fill="#D03030"/>
<ellipse cx="80" cy="92.5" rx="22" ry="21.5" fill="black"/>
<ellipse cx="189" cy="92.5" rx="22" ry="21.5" fill="black"/>
<path d="M57.3682 230.478C55.0507 229.288 52.5802 228.428 50 227.947C62.5387 184.28 96.3257 153 136.04 153C175.669 153 209.396 184.146 221.999 227.666C221.033 227.558 220.054 227.5 219.064 227.5C217.177 227.5 215.33 227.704 213.539 228.089C197.43 196.214 168.745 175 136.04 175C102.525 175 73.2323 197.278 57.3682 230.478Z" fill="black"/>
<rect x="22.5544" width="97" height="8" transform="rotate(34.7018 22.5544 0)" fill="black"/>
<rect x="162" y="55.2201" width="97" height="8" transform="rotate(-34.7 162 55.2201)" fill="black"/>
</svg>
