<svg width="270" height="275" viewBox="0 0 270 275" fill="none" xmlns="http://www.w3.org/2000/svg">
<rect x="72" y="165" width="127" height="88" fill="#FCBCB0"/>
<rect x="72" y="38" width="127" height="127" fill="#C84C0C"/>
<rect x="48" y="48" width="24" height="131" fill="#C84C0C"/>
<rect x="24" y="71" width="24" height="100" fill="#C84C0C"/>
<rect y="105" width="24" height="49" fill="#C84C0C"/>
<rect x="246" y="105" width="24" height="49" fill="#C84C0C"/>
<rect x="222" y="71" width="24" height="100" fill="#C84C0C"/>
<rect x="199" y="48" width="24" height="131" fill="#C84C0C"/>
<rect x="72" y="38" width="127" height="127" fill="#C84C0C"/>
<rect x="81" y="19" width="109" height="19" fill="#C84C0C"/>
<rect x="94" width="84" height="19" fill="#C84C0C"/>
<rect x="158" y="231" width="64" height="44" fill="black"/>
<rect x="182" y="214" width="64" height="44" fill="black"/>
<rect width="64" height="44" transform="matrix(-1 0 0 1 112 231)" fill="black"/>
<rect width="64" height="44" transform="matrix(-1 0 0 1 88 214)" fill="black"/>
<rect x="72" y="129" width="64" height="44" transform="rotate(-90 72 129)" fill="#FCBCB0"/>
<rect x="151" y="129" width="64" height="44" transform="rotate(-90 151 129)" fill="#FCBCB0"/>
<rect x="88" y="78" width="94" height="19" fill="black"/>
<rect x="57" y="51" width="31" height="14" fill="black"/>
<rect x="182" y="51" width="31" height="14" fill="black"/>
<rect x="88" y="114" width="49" height="17" transform="rotate(-90 88 114)" fill="black"/>
<rect x="165" y="114" width="49" height="17" transform="rotate(-90 165 114)" fill="black"/>
<rect x="105" y="62" width="63" height="16" fill="#C84C0C"/>
</svg>
