<svg width="270" height="52" viewBox="0 0 270 52" fill="none" xmlns="http://www.w3.org/2000/svg">
<rect x="72" y="31.2" width="127" height="16.64" fill="#FCBCB0"/>
<rect x="72" y="7.18542" width="127" height="24.0145" fill="#C84C0C"/>
<rect x="48" y="9.07635" width="24" height="24.7709" fill="#C84C0C"/>
<rect x="24" y="13.4255" width="24" height="18.9091" fill="#C84C0C"/>
<rect y="19.8546" width="24" height="9.26546" fill="#C84C0C"/>
<rect x="246" y="19.8546" width="24" height="9.26546" fill="#C84C0C"/>
<rect x="222" y="13.4255" width="24" height="18.9091" fill="#C84C0C"/>
<rect x="199" y="9.07635" width="24" height="24.7709" fill="#C84C0C"/>
<rect x="72" y="7.18542" width="127" height="24.0145" fill="#C84C0C"/>
<rect x="81" y="3.59271" width="109" height="3.59273" fill="#C84C0C"/>
<rect x="94" width="84" height="3.59273" fill="#C84C0C"/>
<rect x="158" y="43.68" width="64" height="8.32" fill="black"/>
<rect x="182" y="40.4655" width="64" height="8.32" fill="black"/>
<rect width="64" height="8.32" transform="matrix(-1 0 0 1 112 43.68)" fill="black"/>
<rect width="64" height="8.32" transform="matrix(-1 0 0 1 88 40.4655)" fill="black"/>
<rect x="72" y="24.3927" width="12.1018" height="44" transform="rotate(-90 72 24.3927)" fill="#FCBCB0"/>
<rect x="151" y="24.3927" width="12.1018" height="44" transform="rotate(-90 151 24.3927)" fill="#FCBCB0"/>
<rect x="88" y="14.7491" width="94" height="3.59273" fill="black"/>
<rect x="57" y="9.64362" width="31" height="2.64727" fill="black"/>
<rect x="182" y="9.64362" width="31" height="2.64727" fill="black"/>
<rect x="88" y="21.5563" width="9.26546" height="17" transform="rotate(-90 88 21.5563)" fill="black"/>
<rect x="165" y="21.5563" width="9.26546" height="17" transform="rotate(-90 165 21.5563)" fill="black"/>
<rect x="105" y="11.7236" width="63" height="3.02545" fill="#C84C0C"/>
</svg>
