<svg width="377" height="362" viewBox="0 0 377 362" fill="none" xmlns="http://www.w3.org/2000/svg">
<rect width="67" height="33" transform="matrix(0 1 1 0 0 277)" fill="#887000"/>
<rect width="22" height="18" transform="matrix(1 0 0 -1 0 362)" fill="#887000"/>
<rect width="67" height="33" transform="matrix(0 -1 -1 0 377 305)" fill="#887000"/>
<rect width="171" height="59" transform="matrix(-1 0 0 1 256 265)" fill="#D82800"/>
<rect width="60" height="49" transform="matrix(-1 0 0 1 316 265)" fill="#D82800"/>
<rect width="28" height="40" transform="matrix(-1 0 0 1 344 265)" fill="#D82800"/>
<rect width="52" height="47" transform="matrix(-1 0 0 1 85 277)" fill="#D82800"/>
<rect width="156" height="20" transform="matrix(-1 0 0 1 256 245)" fill="#D82800"/>
<rect width="198" height="20" transform="matrix(-1 0 0 1 283 28)" fill="#D82800"/>
<rect width="122" height="20" transform="matrix(-1 0 0 1 225 8)" fill="#D82800"/>
<rect width="117" height="32" transform="matrix(-1 0 0 1 229 213)" fill="#D82800"/>
<rect width="61" height="56" transform="matrix(-1 0 0 1 94 189)" fill="#FC9838"/>
<rect width="79" height="19" transform="matrix(-1 0 0 1 112 170)" fill="#887000"/>
<rect width="19" height="18" transform="matrix(0 -1 -1 0 112 245)" fill="#887000"/>
<rect width="20" height="18" transform="matrix(0 -1 -1 0 112 226)" fill="#FC9838"/>
<rect width="20" height="42" transform="matrix(0 -1 -1 0 271 233)" fill="#887000"/>
<rect width="19" height="18" transform="matrix(0 -1 -1 0 112 207)" fill="#887000"/>
<rect width="43" height="20" transform="matrix(0 -1 -1 0 132 213)" fill="#887000"/>
<rect width="83" height="19" transform="matrix(-1 0 0 1 132 151)" fill="#887000"/>
<rect width="65" height="10" transform="matrix(-1 0 0 1 132 141)" fill="#887000"/>
<rect width="56" height="17" transform="matrix(-1 0 0 1 209 141)" fill="#887000"/>
<rect width="35" height="43" transform="matrix(-1 0 0 1 188 151)" fill="#887000"/>
<rect width="91" height="55" transform="matrix(-1 0 0 1 300 158)" fill="#887000"/>
<rect width="160" height="93" transform="matrix(-1 0 0 1 245 48)" fill="#FC9838"/>
<rect width="60" height="95" transform="matrix(-1 0 0 1 326 63)" fill="#887000"/>
<rect width="60" height="23" transform="matrix(-1 0 0 1 145 48)" fill="#887000"/>
<rect width="60" height="23" transform="matrix(0 -1 -1 0 126 112)" fill="#887000"/>
<rect width="40" height="23" transform="matrix(0 -1 -1 0 225 88)" fill="#887000"/>
<rect width="41" height="36" transform="matrix(0 -1 -1 0 85 112)" fill="#887000"/>
<rect width="77" height="23" transform="matrix(-1 0 0 1 126 98)" fill="#887000"/>
<rect width="30" height="18" transform="matrix(-1 0 0 1 311 0)" fill="#FC9838"/>
<rect width="17" height="17" transform="matrix(-1 0 0 1 300 95)" fill="#FC9838"/>
<rect width="38" height="39" transform="matrix(-1 0 0 1 283 73)" fill="#FC9838"/>
<rect width="77" height="19" transform="matrix(-1 0 0 1 209 194)" fill="#D82800"/>
<rect width="53" height="21" transform="matrix(0 -1 -1 0 153 194)" fill="#D82800"/>
<rect width="36" height="21" transform="matrix(0 -1 -1 0 209 194)" fill="#D82800"/>
<rect width="22" height="18" transform="matrix(-1 0 0 1 377 220)" fill="#887000"/>
<rect width="20" height="18" transform="matrix(0 -1 -1 0 150 233)" fill="#FC9838"/>
<rect width="20" height="18" transform="matrix(0 -1 -1 0 209 233)" fill="#FC9838"/>
<rect width="40" height="23" transform="matrix(0 -1 -1 0 245 128)" fill="#887000"/>
<rect width="60" height="20" transform="matrix(-1 0 0 1 262 108)" fill="#887000"/>
<rect width="60" height="45" transform="matrix(-1 0 0 1 326 18)" fill="#FC9838"/>
</svg>
