<svg width="272" height="323" viewBox="0 0 272 323" fill="none" xmlns="http://www.w3.org/2000/svg">
<rect x="28" y="290" width="67" height="33" fill="#887000"/>
<rect x="6" y="305" width="22" height="18" fill="#887000"/>
<rect width="67" height="33" transform="matrix(-1 0 0 1 250 290)" fill="#887000"/>
<rect width="171" height="33" transform="matrix(-1 0 0 1 223 257)" fill="#D82800"/>
<rect width="156" height="20" transform="matrix(-1 0 0 1 223 237)" fill="#D82800"/>
<rect width="198" height="20" transform="matrix(-1 0 0 1 250 20)" fill="#D82800"/>
<rect width="122" height="20" transform="matrix(-1 0 0 1 192 0)" fill="#D82800"/>
<rect width="117" height="32" transform="matrix(-1 0 0 1 196 205)" fill="#D82800"/>
<rect width="61" height="56" transform="matrix(-1 0 0 1 61 181)" fill="#FC9838"/>
<rect width="79" height="19" transform="matrix(-1 0 0 1 79 162)" fill="#887000"/>
<rect width="19" height="18" transform="matrix(0 -1 -1 0 79 237)" fill="#887000"/>
<rect width="20" height="18" transform="matrix(0 -1 -1 0 79 218)" fill="#FC9838"/>
<rect width="20" height="27" transform="matrix(0 -1 -1 0 223 225)" fill="#887000"/>
<rect width="19" height="18" transform="matrix(0 -1 -1 0 79 199)" fill="#887000"/>
<rect width="43" height="20" transform="matrix(0 -1 -1 0 99 205)" fill="#887000"/>
<rect width="83" height="19" transform="matrix(-1 0 0 1 99 143)" fill="#887000"/>
<rect width="65" height="10" transform="matrix(-1 0 0 1 99 133)" fill="#887000"/>
<rect width="56" height="17" transform="matrix(-1 0 0 1 176 133)" fill="#887000"/>
<rect width="35" height="43" transform="matrix(-1 0 0 1 155 143)" fill="#887000"/>
<rect width="62" height="55" transform="matrix(-1 0 0 1 238 150)" fill="#887000"/>
<rect width="160" height="93" transform="matrix(-1 0 0 1 212 40)" fill="#FC9838"/>
<rect width="60" height="23" transform="matrix(-1 0 0 1 256 176)" fill="#887000"/>
<rect width="60" height="23" transform="matrix(-1 0 0 1 112 40)" fill="#887000"/>
<rect width="60" height="23" transform="matrix(0 -1 -1 0 93 104)" fill="#887000"/>
<rect width="40" height="23" transform="matrix(0 -1 -1 0 192 80)" fill="#887000"/>
<rect width="41" height="36" transform="matrix(0 -1 -1 0 52 104)" fill="#887000"/>
<rect width="77" height="23" transform="matrix(-1 0 0 1 93 90)" fill="#887000"/>
<rect width="27" height="18" transform="matrix(-1 0 0 1 223 220)" fill="#FC9838"/>
<rect width="17" height="17" transform="matrix(-1 0 0 1 267 87)" fill="#FC9838"/>
<rect width="38" height="39" transform="matrix(-1 0 0 1 250 65)" fill="#FC9838"/>
<rect width="77" height="19" transform="matrix(-1 0 0 1 176 186)" fill="#D82800"/>
<rect width="53" height="21" transform="matrix(0 -1 -1 0 120 186)" fill="#D82800"/>
<rect width="36" height="21" transform="matrix(0 -1 -1 0 176 186)" fill="#D82800"/>
<rect width="22" height="18" transform="matrix(-1 0 0 1 272 305)" fill="#887000"/>
<rect width="33" height="62" transform="matrix(-1 0 0 1 256 199)" fill="#FC9838"/>
<rect width="20" height="18" transform="matrix(0 -1 -1 0 117 225)" fill="#FC9838"/>
<rect width="20" height="18" transform="matrix(0 -1 -1 0 176 225)" fill="#FC9838"/>
<rect width="40" height="23" transform="matrix(0 -1 -1 0 212 120)" fill="#887000"/>
<rect width="76" height="20" transform="matrix(-1 0 0 1 245 100)" fill="#887000"/>
</svg>
