<svg width="270" height="253" viewBox="0 0 270 253" fill="none" xmlns="http://www.w3.org/2000/svg">
<rect x="72" y="165" width="127" height="88" fill="#F9F1EF"/>
<rect x="72" y="38" width="127" height="127" fill="#FB6F4F"/>
<rect x="48" y="48" width="24" height="131" fill="#FB6F4F"/>
<rect x="24" y="71" width="24" height="100" fill="#FB6F4F"/>
<rect y="105" width="24" height="49" fill="#FB6F4F"/>
<rect x="246" y="105" width="24" height="49" fill="#FB6F4F"/>
<rect x="222" y="71" width="24" height="100" fill="#FB6F4F"/>
<rect x="199" y="48" width="24" height="131" fill="#FB6F4F"/>
<rect x="72" y="38" width="127" height="127" fill="#FB6F4F"/>
<rect x="81" y="19" width="109" height="19" fill="#FB6F4F"/>
<rect x="94" width="84" height="19" fill="#FB6F4F"/>
<rect x="105" y="62" width="63" height="16" fill="#FB6F4F"/>
<rect x="32" y="110" width="49" height="44" fill="#F84444"/>
<rect x="125" y="124" width="33" height="30" fill="#F84444"/>
<rect x="64" y="54" width="33" height="30" fill="#F84444"/>
<rect x="168" y="84" width="66" height="65" fill="#F84444"/>
<rect x="125" y="12" width="49" height="44" fill="#F84444"/>
<rect x="105" y="84" width="26" height="23" fill="#F84444"/>
</svg>
