<svg width="313" height="243" viewBox="0 0 313 243" fill="none" xmlns="http://www.w3.org/2000/svg">
<rect x="107" y="243" width="33" height="100" transform="rotate(-90 107 243)" fill="white"/>
<rect x="71" y="210" width="21" height="71" transform="rotate(-90 71 210)" fill="white"/>
<rect x="171" y="210" width="21" height="71" transform="rotate(-90 171 210)" fill="white"/>
<rect x="36" y="189" width="21" height="71" transform="rotate(-90 36 189)" fill="white"/>
<rect x="35" y="139" width="38" height="242" transform="rotate(-90 35 139)" fill="#01DD15"/>
<rect x="55" y="101" width="35" height="202" transform="rotate(-90 55 101)" fill="#01DD15"/>
<rect x="80" y="66" width="38" height="151" transform="rotate(-90 80 66)" fill="#01DD15"/>
<rect x="71" y="168" width="29" height="171" transform="rotate(-90 71 168)" fill="#01DD15"/>
<rect x="71" y="168" width="29" height="36" transform="rotate(-90 71 168)" fill="black"/>
<rect x="85" y="110" width="20" height="22" transform="rotate(-90 85 110)" fill="black"/>
<rect x="207" y="110" width="20" height="22" transform="rotate(-90 207 110)" fill="black"/>
<rect x="229" y="90" width="24" height="28" transform="rotate(-90 229 90)" fill="black"/>
<rect x="55" y="90" width="24" height="30" transform="rotate(-90 55 90)" fill="black"/>
<rect x="206" y="168" width="29" height="36" transform="rotate(-90 206 168)" fill="black"/>
<rect x="107" y="139" width="29" height="100" transform="rotate(-90 107 139)" fill="black"/>
<rect x="107" y="189" width="21" height="99" transform="rotate(-90 107 189)" fill="#01DD15"/>
<rect x="142" y="210" width="21" height="31" transform="rotate(-90 142 210)" fill="#01DD15"/>
<rect x="96" y="28" width="28" height="119" transform="rotate(-90 96 28)" fill="#01DD15"/>
<rect x="206" y="189" width="21" height="71" transform="rotate(-90 206 189)" fill="white"/>
<rect x="242" y="168" width="29" height="71" transform="rotate(-90 242 168)" fill="white"/>
<rect y="168" width="29" height="71" transform="rotate(-90 0 168)" fill="white"/>
<rect x="106" y="55" width="16" height="100" transform="rotate(-90 106 55)" fill="black"/>
<rect x="206" y="39" width="11" height="25" transform="rotate(-90 206 39)" fill="black"/>
<rect x="80" y="39" width="11" height="27" transform="rotate(-90 80 39)" fill="black"/>
</svg>
