<svg width="392" height="463" viewBox="0 0 392 463" fill="none" xmlns="http://www.w3.org/2000/svg">
<rect width="67" height="41" transform="matrix(-1 0 0 1 221 422)" fill="#FB6F4F"/>
<rect width="22" height="22" transform="matrix(-1 0 0 1 243 441)" fill="#FB6F4F"/>
<rect y="287" width="29" height="45" fill="#01DD15"/>
<rect x="29" y="306" width="29" height="45" fill="#01DD15"/>
<rect x="271" y="279" width="68" height="27" fill="#01DD15"/>
<rect x="243" y="220" width="28" height="26" fill="#01DD15"/>
<rect x="130" y="138" width="24" height="24" fill="#01DD15"/>
<rect x="106" y="138" width="24" height="53" fill="#01DD15"/>
<rect x="243" y="192" width="28" height="28" fill="white"/>
<rect x="213" y="28" width="30" height="28" fill="white"/>
<rect x="182" y="28" width="31" height="28" fill="#01DD15"/>
<rect x="130" y="162" width="24" height="56" fill="white"/>
<rect x="271" y="190" width="86" height="28" fill="#01DD15"/>
<rect x="275" y="56" width="86" height="28" fill="#01DD15"/>
<rect x="130" y="110" width="113" height="28" fill="#01DD15"/>
<rect x="130" y="82" width="52" height="28" fill="#01DD15"/>
<rect x="149" y="56" width="33" height="28" fill="#01DD15"/>
<rect x="182" width="61" height="28" fill="#01DD15"/>
<rect x="243" y="83" width="149" height="111" fill="#01DD15"/>
<rect x="154" y="246" width="89" height="60" fill="#01DD15"/>
<rect x="154" y="138" width="89" height="108" fill="white"/>
<rect x="134" y="395" width="109" height="27" fill="#01DD15"/>
<rect x="130" y="306" width="209" height="27" fill="#01DD15"/>
<rect x="134" y="333" width="109" height="27" fill="#01DD15"/>
<rect x="58" y="333" width="152" height="62" fill="#01DD15"/>
<rect x="332" y="83" width="30" height="28" fill="black"/>
<rect x="213" y="56" width="30" height="55" fill="black"/>
<rect x="243" y="246" width="28" height="60" fill="white"/>
<rect x="182" y="56" width="31" height="54" fill="white"/>
<rect x="29" y="351" width="29" height="27" fill="white"/>
<rect x="58" y="306" width="72" height="27" fill="white"/>
<rect x="130" y="279" width="24" height="27" fill="white"/>
<rect x="130" y="218" width="24" height="61" fill="#FB6F4F"/>
<rect x="106" y="190" width="24" height="56" fill="#FB6F4F"/>
<rect x="82" y="139" width="24" height="56" fill="#FB6F4F"/>
<rect x="106" y="110" width="24" height="28" fill="#FB6F4F"/>
<rect x="58" y="279" width="72" height="27" fill="#FF0000"/>
<rect y="332" width="29" height="27" fill="white"/>
</svg>
