<svg width="243" height="554" viewBox="0 0 243 554" fill="none" xmlns="http://www.w3.org/2000/svg">
<rect x="125" y="82" width="27" height="130" fill="#D9D9D9"/>
<rect x="121" y="367" width="27" height="92" fill="#D9D9D9"/>
<rect x="93" y="403.245" width="15.0483" height="37.5636" transform="rotate(-54.4629 93 403.245)" fill="#D9D9D9"/>
<rect x="169.566" y="391" width="15.0483" height="37.5636" transform="rotate(54.46 169.566 391)" fill="#D9D9D9"/>
<rect x="37" y="238" width="14" height="130" fill="#D9D9D9"/>
<rect x="93" y="354" width="18" height="50" fill="#D9D9D9"/>
<rect x="161" y="354" width="18" height="50" fill="#D9D9D9"/>
<rect x="213" y="238" width="14" height="130" fill="#D9D9D9"/>
<rect x="152" y="464" width="14" height="79" fill="#D9D9D9"/>
<rect x="102" y="464" width="14" height="79" fill="#D9D9D9"/>
<rect x="71" y="212" width="130" height="156" rx="7" fill="#D9D9D9"/>
<ellipse cx="97.2968" cy="98.5584" rx="107.5" ry="31" transform="rotate(-45.6682 97.2968 98.5584)" fill="#D9D9D9"/>
<ellipse cx="51" cy="220.5" rx="30" ry="23.5" transform="rotate(-180 51 220.5)" fill="#D9D9D9"/>
<ellipse cx="111" cy="456.5" rx="18" ry="23.5" transform="rotate(-180 111 456.5)" fill="#D9D9D9"/>
<ellipse cx="157" cy="456.5" rx="18" ry="23.5" transform="rotate(-180 157 456.5)" fill="#D9D9D9"/>
<ellipse cx="213" cy="220.5" rx="30" ry="23.5" transform="rotate(-180 213 220.5)" fill="#D9D9D9"/>
<ellipse cx="139.269" cy="55.5959" rx="47.4381" ry="31" transform="rotate(-45.6682 139.269 55.5959)" fill="#CEA84F"/>
<path d="M109 100.241C113.455 99.8497 117.625 103.6 118.451 108.861C119.278 114.121 116.457 118.969 112.097 119.962L109 100.241Z" fill="black"/>
<path d="M72.4776 90.3314C71.9157 85.8948 75.503 81.5835 80.7283 80.5562C85.9536 79.5289 90.906 82.1614 92.0655 86.4805L72.4776 90.3314Z" fill="black"/>
<rect x="87" y="543" width="29" height="11" fill="#D9D9D9"/>
<rect x="137" y="543" width="29" height="11" fill="#D9D9D9"/>
<ellipse cx="135" cy="319.5" rx="40" ry="34.5" fill="#CEA84F"/>
</svg>
