<svg width="222" height="478" viewBox="0 0 222 478" fill="none" xmlns="http://www.w3.org/2000/svg">
<ellipse cx="118" cy="59.5" rx="38" ry="59.5" transform="rotate(-180 118 59.5)" fill="#332C30"/>
<rect x="104" y="106" width="27" height="30" fill="#332C30"/>
<rect x="100" y="291" width="27" height="92" fill="#332C30"/>
<rect x="88" y="243" width="54" height="92" fill="#332C30"/>
<rect x="9" y="289" width="27" height="30" fill="#332C30"/>
<rect x="186" y="291" width="27" height="30" fill="#332C30"/>
<rect x="72" y="327.245" width="15.0483" height="37.5636" transform="rotate(-54.4629 72 327.245)" fill="#332C30"/>
<rect x="148.566" y="315" width="15.0483" height="37.5636" transform="rotate(54.46 148.566 315)" fill="#332C30"/>
<rect x="16" y="162" width="14" height="130" fill="#332C30"/>
<rect x="72" y="278" width="18" height="50" fill="#332C30"/>
<rect x="140" y="278" width="18" height="50" fill="#332C30"/>
<rect x="192" y="162" width="14" height="130" fill="#332C30"/>
<rect x="131" y="388" width="14" height="79" fill="#332C30"/>
<rect x="81" y="388" width="14" height="79" fill="#332C30"/>
<rect x="50" y="136" width="130" height="156" rx="7" fill="#332C30"/>
<ellipse cx="30" cy="144.5" rx="30" ry="23.5" transform="rotate(-180 30 144.5)" fill="#B6764D"/>
<ellipse cx="90" cy="380.5" rx="18" ry="23.5" transform="rotate(-180 90 380.5)" fill="#332C30"/>
<ellipse cx="136" cy="380.5" rx="18" ry="23.5" transform="rotate(-180 136 380.5)" fill="#332C30"/>
<ellipse cx="192" cy="144.5" rx="30" ry="23.5" transform="rotate(-180 192 144.5)" fill="#B6764D"/>
<path d="M124.934 49.4809C126.094 45.1618 131.046 42.5291 136.271 43.5562C141.497 44.5833 145.084 48.8945 144.522 53.3311L124.934 49.4809Z" fill="white"/>
<path d="M144.98 56.1703C143.971 60.527 139.113 63.3294 133.855 62.4836C128.597 61.6379 124.863 57.4534 125.271 53L144.98 56.1703Z" fill="white"/>
<path d="M109.709 53C110.117 57.4534 106.383 61.638 101.125 62.484C95.8678 63.3299 91.0094 60.5277 90 56.1711L109.709 53Z" fill="white"/>
<path d="M90.5433 52.7007C89.9814 48.2641 93.5687 43.9527 98.794 42.9255C104.019 41.8982 108.972 44.5306 110.131 48.8497L90.5433 52.7007Z" fill="white"/>
<rect x="66" y="467" width="29" height="11" fill="#332C30"/>
<rect x="116" y="467" width="29" height="11" fill="#332C30"/>
<ellipse cx="22.5" cy="221.5" rx="6.5" ry="34.5" fill="#B6764D"/>
<ellipse cx="14.5" cy="298.5" rx="5.5" ry="9.5" fill="#B6764D"/>
<ellipse cx="191.5" cy="301.5" rx="5.5" ry="9.5" fill="#B6764D"/>
<ellipse cx="207.5" cy="301.5" rx="5.5" ry="9.5" fill="#B6764D"/>
<ellipse cx="30.5" cy="298.5" rx="5.5" ry="9.5" fill="#B6764D"/>
<ellipse cx="199.5" cy="221.5" rx="6.5" ry="34.5" fill="#B6764D"/>
<ellipse cx="118" cy="95.5" rx="24" ry="21.5" transform="rotate(-180 118 95.5)" fill="#403D3F"/>
<ellipse cx="118" cy="100.5" rx="12" ry="12.5" transform="rotate(-180 118 100.5)" fill="#332C30"/>
</svg>
