<svg width="455" height="587" viewBox="0 0 455 587" fill="none" xmlns="http://www.w3.org/2000/svg">
<rect x="49" y="101" width="124" height="74" fill="#CEA84F"/>
<rect x="287" y="101" width="117" height="74" fill="#CEA84F"/>
<path d="M229.5 0C255.734 0 277 45.2192 277 101H182C182 45.2192 203.266 0 229.5 0Z" fill="#CEA84F"/>
<rect x="166" y="80" width="128" height="101" rx="11" fill="#3E3E33"/>
<rect x="122" y="292" width="209" height="106" fill="#5C5A55"/>
<rect x="122" y="398" width="53" height="144" fill="#5C5A55"/>
<rect x="122" y="542" width="53" height="45" fill="#171716"/>
<rect x="247" y="560" width="30" height="27" fill="#171716"/>
<rect x="94" y="560" width="30" height="27" fill="#171716"/>
<rect x="277" y="542" width="53" height="45" fill="#171716"/>
<rect x="277" y="398" width="54" height="144" fill="#5C5A55"/>
<rect x="124" y="175" width="207" height="117" fill="#CEA84F"/>
<path d="M124.544 291.129V175.229H196.857L197 175H51L124 292L124.544 291.129Z" fill="#CEA84F"/>
<path d="M181.742 275.516V211.127H213.937L214 211H149L181.5 276L181.742 275.516Z" fill="#353128"/>
<path d="M278.258 275.516V211.127H246.063L246 211H311L278.5 276L278.258 275.516Z" fill="#353128"/>
<path d="M330.456 291.129V175.229H258.143L258 175H404L331 292L330.456 291.129Z" fill="#CEA84F"/>
<rect x="180" y="211" width="99" height="65" fill="#353128"/>
<rect x="23" y="175" width="26" height="72" fill="#5C5A55"/>
<rect x="24" y="256" width="26" height="62" fill="#5C5A55"/>
<rect x="19" y="318" width="35" height="33" fill="#353128"/>
<rect x="401" y="323" width="35" height="33" fill="#353128"/>
<rect x="406" y="261" width="26" height="62" fill="#5C5A55"/>
<rect x="122" y="325" width="209" height="43" fill="#353128"/>
<ellipse cx="37" cy="135.5" rx="37" ry="45.5" fill="#5C5A55"/>
<ellipse cx="201.5" cy="44.5" rx="7.5" ry="6.5" fill="black"/>
<ellipse cx="36.5" cy="253" rx="22.5" ry="16" fill="#5C5A55"/>
<rect x="405" y="175" width="26" height="78" fill="#5C5A55"/>
<ellipse cx="418.5" cy="253" rx="22.5" ry="16" fill="#5C5A55"/>
<ellipse cx="418" cy="135.5" rx="37" ry="45.5" fill="#5C5A55"/>
<rect x="179.508" y="48.9754" width="20" height="7" transform="rotate(-27.2949 179.508 48.9754)" fill="black"/>
<rect x="174.127" y="63.7263" width="16.8117" height="7" transform="rotate(-69.2995 174.127 63.7263)" fill="black"/>
<rect x="174.065" y="80.4311" width="17.4049" height="7" transform="rotate(-90.2154 174.065 80.4311)" fill="black"/>
</svg>
