<svg width="517" height="544" viewBox="0 0 517 544" fill="none" xmlns="http://www.w3.org/2000/svg">
<circle cx="259.5" cy="313.5" r="230.5" fill="#84746A"/>
<path d="M59.3292 44.2273L181.981 101.534L79.2202 178.137L59.3292 44.2273Z" fill="#84746A"/>
<path d="M70.1361 59.6652L155.418 99.7218L84.1686 152.835L70.1361 59.6652Z" fill="#BAA18F"/>
<path d="M457.354 44.2243L437.47 178.135L334.705 101.537L457.354 44.2243Z" fill="#84746A"/>
<path d="M443.343 63.6631L429.315 156.834L358.063 103.724L443.343 63.6631Z" fill="#BAA18F"/>
<ellipse cx="182" cy="241.5" rx="54" ry="41.5" fill="#83B1CA"/>
<ellipse cx="338" cy="241.5" rx="54" ry="41.5" fill="#83B1CA"/>
<ellipse cx="260" cy="469.5" rx="113" ry="74.5" fill="#FAF5F5"/>
<path d="M259.5 259L350.866 432.25H168.134L259.5 259Z" fill="#FAF5F5"/>
<path d="M258 468L221.627 418.5H294.373L258 468Z" fill="#F693A9"/>
<ellipse cx="339.5" cy="241.5" rx="7.5" ry="26.5" fill="black"/>
<ellipse cx="179.5" cy="241.5" rx="7.5" ry="26.5" fill="black"/>
<line x1="273.744" y1="431.571" x2="387.744" y2="363.571" stroke="white"/>
<line x1="270.857" y1="439.521" x2="397.857" y2="401.521" stroke="white"/>
<line x1="268.103" y1="441.511" x2="392.103" y2="467.511" stroke="white"/>
<line x1="242.803" y1="429.46" x2="116.803" y2="375.46" stroke="white"/>
<line x1="241.976" y1="441.499" x2="116.976" y2="435.499" stroke="white"/>
<line x1="258.143" y1="447.479" x2="137.143" y2="483.479" stroke="white"/>
</svg>
