<svg width="525" height="545" viewBox="0 0 525 545" fill="none" xmlns="http://www.w3.org/2000/svg">
<circle cx="269.5" cy="314.5" r="230.5" fill="#FBA452"/>
<path d="M59.3292 53.2273L181.981 110.534L79.2202 187.137L59.3292 53.2273Z" fill="#FBA452"/>
<path d="M70.1361 68.6652L155.418 108.722L84.1686 161.835L70.1361 68.6652Z" fill="#FFC288"/>
<path d="M465.354 44.2243L445.469 178.135L342.704 101.537L465.354 44.2243Z" fill="#FBA452"/>
<path d="M451.343 63.6631L437.315 156.834L366.063 103.724L451.343 63.6631Z" fill="#FFC288"/>
<ellipse cx="192" cy="245.5" rx="54" ry="41.5" fill="#B89D52"/>
<ellipse cx="348" cy="245.5" rx="54" ry="41.5" fill="#B89D52"/>
<ellipse cx="191.5" cy="245.5" rx="22.5" ry="16.5" fill="black"/>
<ellipse cx="347.5" cy="245.5" rx="22.5" ry="16.5" fill="black"/>
<ellipse cx="269.5" cy="417" rx="82.5" ry="51" fill="#FAF5F5"/>
<path d="M269 432L232.627 382.5H305.373L269 432Z" fill="#F693A9"/>
<line x1="273.278" y1="411.585" x2="382.278" y2="484.585" stroke="black"/>
<line x1="282.192" y1="393.538" x2="402.192" y2="443.538" stroke="black"/>
<line x1="294.85" y1="387.523" x2="421.85" y2="347.523" stroke="black"/>
<line x1="288.026" y1="391.501" x2="422.026" y2="398.501" stroke="black"/>
<line x1="247.896" y1="392.489" x2="125.896" y2="366.489" stroke="black"/>
<line x1="268.262" y1="419.426" x2="169.262" y2="480.426" stroke="black"/>
<line x1="266.159" y1="412.474" x2="138.159" y2="455.474" stroke="black"/>
<line x1="244.084" y1="399.493" x2="138.084" y2="417.493" stroke="black"/>
</svg>
