<svg width="517" height="547" viewBox="0 0 517 547" fill="none" xmlns="http://www.w3.org/2000/svg">
<path d="M59.3292 44.2273L181.981 101.534L79.2202 178.137L59.3292 44.2273Z" fill="#F5F5F5"/>
<path d="M70.1361 59.6652L155.418 99.7218L84.1686 152.835L70.1361 59.6652Z" fill="#F693A9" fill-opacity="0.45"/>
<path d="M457.354 44.2243L437.47 178.135L334.705 101.537L457.354 44.2243Z" fill="#F5F5F5"/>
<path d="M443.343 63.6631L429.315 156.834L358.063 103.724L443.343 63.6631Z" fill="#F693A9" fill-opacity="0.45"/>
<path d="M258.5 86C383.467 86 485.206 185.448 488.896 309.521L364.621 521.171C332.858 537.674 296.768 547 258.5 547C218.966 547 181.757 537.046 149.241 519.509L28.0244 313.091C29.8473 187.361 132.337 86 258.5 86Z" fill="#F5F5F5"/>
<ellipse cx="180" cy="242.5" rx="54" ry="41.5" fill="#A5E0FA"/>
<ellipse cx="336" cy="242.5" rx="54" ry="41.5" fill="#A5E0FA"/>
<ellipse cx="180" cy="242.5" rx="16" ry="26.5" fill="black"/>
<ellipse cx="339" cy="242.5" rx="16" ry="26.5" fill="black"/>
<ellipse cx="258.5" cy="424" rx="82.5" ry="51" fill="white"/>
<path d="M258 439L221.627 389.5H294.373L258 439Z" fill="#F693A9"/>
<line x1="267.246" y1="421.565" x2="380.246" y2="485.565" stroke="black"/>
<line x1="271.061" y1="407.504" x2="402.061" y2="423.504" stroke="black"/>
<line x1="282.911" y1="398.508" x2="425.911" y2="372.508" stroke="black"/>
<line x1="249.85" y1="396.477" x2="125.85" y2="357.477" stroke="black"/>
<line x1="247.011" y1="413.5" x2="107.011" y2="416.5" stroke="black"/>
<line x1="256.196" y1="423.46" x2="134.196" y2="475.46" stroke="black"/>
</svg>
