<svg width="212" height="301" viewBox="0 0 212 301" fill="none" xmlns="http://www.w3.org/2000/svg">
<path d="M105.8 0C159.516 7.71433e-05 203.881 38.7958 210.691 89.0518H211.6V300.727H187.505C183.711 286.557 170.785 276.122 155.419 276.122C140.053 276.122 127.125 286.557 123.332 300.727H86.627C82.8335 286.557 69.9062 276.122 54.54 276.122C39.1741 276.122 26.2475 286.557 22.4541 300.727H0V89.0518H0.908203C7.71856 38.7959 52.0834 0.000157505 105.8 0Z" fill="#FB40E2"/>
<circle cx="55.5996" cy="115" r="25" fill="white"/>
<circle cx="156.6" cy="115" r="25" fill="white"/>
<circle cx="163.1" cy="114.5" r="18.5" fill="#2804F9"/>
<ellipse cx="62.5996" cy="114.5" rx="18" ry="18.5" fill="#2804F9"/>
</svg>
