<svg width="212" height="301" viewBox="0 0 212 301" fill="none" xmlns="http://www.w3.org/2000/svg">
<path d="M105.8 0C159.516 7.71433e-05 203.881 38.7958 210.691 89.0518H211.6V300.727H187.505C183.711 286.557 170.785 276.122 155.419 276.122C140.053 276.122 127.125 286.557 123.332 300.727H86.627C82.8335 286.557 69.9062 276.122 54.54 276.122C39.174 276.122 26.2476 286.557 22.4541 300.727H0V89.0518H0.908203C7.71857 38.7958 52.0834 0.000114753 105.8 0Z" fill="#2804F9"/>
<ellipse cx="55.9404" cy="115" rx="24.5" ry="25" fill="#FFE4C4"/>
<circle cx="156.44" cy="115" r="25" fill="#FFE4C4"/>
<line x1="36.6237" y1="229.671" x2="71.6237" y2="189.671" stroke="#FFE4C4"/>
<line x1="71.3763" y1="189.671" x2="106.379" y2="229.668" stroke="#FFE4C4"/>
<line x1="106.624" y1="229.671" x2="141.624" y2="189.671" stroke="#FFE4C4"/>
<line x1="141.376" y1="189.671" x2="176.379" y2="229.668" stroke="#FFE4C4"/>
</svg>
